<svg xmlns="http://www.w3.org/2000/svg" width="23" height="26.286" viewBox="0 0 23 26.286">
  <g id="bag_1_" data-name="bag (1)" transform="translate(-32)">
    <g id="Group_148" data-name="Group 148" transform="translate(32)">
      <path id="Path_602" data-name="Path 602" d="M54.961,5.75a.792.792,0,0,0-.289-.657l-2.663-2,1.211-1.817A.824.824,0,0,0,52.536,0H34.464a.821.821,0,0,0-.683,1.276l1.212,1.817-2.665,2a.792.792,0,0,0-.289.657H32V23a3.289,3.289,0,0,0,3.286,3.286H51.714A3.289,3.289,0,0,0,55,23V5.75Zm-4.889,7.393a6.571,6.571,0,0,1-13.143,0V10.679a.821.821,0,0,1,1.643,0v2.464a4.929,4.929,0,1,0,9.857,0V10.679a.821.821,0,0,1,1.643,0ZM35.286,4.929,36.6,3.943a.822.822,0,0,0,.191-1.112L36,1.643H51l-.79,1.188A.82.82,0,0,0,50.4,3.943l1.314.986Z" transform="translate(-32)" fill="rgba(54,87,224,0.81)"/>
    </g>
  </g>
</svg>
