<svg xmlns="http://www.w3.org/2000/svg" width="403.151" height="341.502" viewBox="0 0 403.151 341.502">
  <g id="OBJECTS" transform="translate(378.043 44.06)">
    <g id="Group_83" data-name="Group 83" transform="translate(-391 -43.303)">
      <g id="Group_1" data-name="Group 1" transform="translate(6 302.292)">
        <ellipse id="Ellipse_1" data-name="Ellipse 1" cx="86.419" cy="3.365" rx="86.419" ry="3.365" transform="translate(118.638 29.177)" fill="#ffcdc5" opacity="0.5" style="mix-blend-mode: multiply;isolation: isolate"/>
        <ellipse id="Ellipse_2" data-name="Ellipse 2" cx="54.861" cy="4.164" rx="54.861" ry="4.164" transform="translate(11.886 21.905)" fill="#ffcdc5" opacity="0.5" style="mix-blend-mode: multiply;isolation: isolate"/>
        <path id="Path_1" data-name="Path 1" d="M454.669,455.034c0,1.4-18.679,2.537-41.72,2.537s-41.719-1.136-41.719-2.537,18.678-2.537,41.719-2.537S454.669,453.633,454.669,455.034Z" transform="translate(-71.039 -419.117)" fill="#ffcdc5" opacity="0.5" style="mix-blend-mode: multiply;isolation: isolate"/>
      </g>
      <g id="Group_82" data-name="Group 82" transform="translate(12.957)">
        <g id="Group_6" data-name="Group 6" transform="translate(6.04)">
          <g id="Group_2" data-name="Group 2" transform="translate(341.519)">
            <path id="Path_2" data-name="Path 2" d="M409.83,72.7l-1.92,3.326h3.84Z" transform="translate(-407.91 -72.697)" fill="#ffbeb4"/>
            <path id="Path_3" data-name="Path 3" d="M409.83,79.592l-1.92,3.326h3.84Z" transform="translate(-407.91 -73.498)" fill="#ffbeb4"/>
            <path id="Path_4" data-name="Path 4" d="M414.358,75.523l-1.778,3.6h3.556Z" transform="translate(-408.452 -73.025)" fill="#ffbeb4"/>
          </g>
          <g id="Group_3" data-name="Group 3" transform="translate(289.52 136.676)">
            <path id="Path_5" data-name="Path 5" d="M350.995,227.34l-1.92,3.326h3.84Z" transform="translate(-349.075 -227.34)" fill="#ffbeb4"/>
            <path id="Path_6" data-name="Path 6" d="M350.995,234.236l-1.92,3.326h3.84Z" transform="translate(-349.075 -228.141)" fill="#ffbeb4"/>
            <path id="Path_7" data-name="Path 7" d="M355.522,230.166l-1.778,3.6H357.3Z" transform="translate(-349.617 -227.668)" fill="#ffbeb4"/>
          </g>
          <g id="Group_4" data-name="Group 4" transform="translate(0 156.501)">
            <path id="Path_8" data-name="Path 8" d="M23.414,249.772l-1.92,3.326h3.84Z" transform="translate(-21.494 -249.772)" fill="#ffbeb4"/>
            <path id="Path_9" data-name="Path 9" d="M23.414,256.668l-1.92,3.326h3.84Z" transform="translate(-21.494 -250.573)" fill="#ffbeb4"/>
            <path id="Path_10" data-name="Path 10" d="M27.942,252.6l-1.778,3.6H29.72Z" transform="translate(-22.036 -250.1)" fill="#ffbeb4"/>
          </g>
          <g id="Group_5" data-name="Group 5" transform="translate(285.678 283.863)">
            <path id="Path_11" data-name="Path 11" d="M346.648,393.877l-1.92,3.326h3.84Z" transform="translate(-344.728 -393.877)" fill="#ffbeb4"/>
            <path id="Path_12" data-name="Path 12" d="M346.648,400.772l-1.92,3.326h3.84Z" transform="translate(-344.728 -394.678)" fill="#ffbeb4"/>
            <path id="Path_13" data-name="Path 13" d="M351.176,396.7l-1.778,3.6h3.556Z" transform="translate(-345.27 -394.205)" fill="#ffbeb4"/>
          </g>
        </g>
        <g id="Group_44" data-name="Group 44" transform="translate(310.722 176.053)">
          <g id="Group_17" data-name="Group 17" transform="translate(0 112.521)">
            <path id="Path_21" data-name="Path 21" d="M456.312,403.9H368.577a2.347,2.347,0,0,1-2.347-2.347h0a2.347,2.347,0,0,1,2.347-2.347h87.734a2.347,2.347,0,0,1,2.347,2.347h0A2.347,2.347,0,0,1,456.312,403.9Z" transform="translate(-366.23 -399.206)" fill="#ffbeb4"/>
            <path id="Path_22" data-name="Path 22" d="M381.963,445.895h0a2.269,2.269,0,0,1-2.458-1.828l-2.28-41.184H386.7l-2.28,41.184A2.269,2.269,0,0,1,381.963,445.895Z" transform="translate(-367.507 -399.633)" fill="#ffbeb4"/>
            <path id="Path_23" data-name="Path 23" d="M454.775,445.895h0a2.269,2.269,0,0,1-2.458-1.828l-2.28-41.184h9.476l-2.28,41.184A2.269,2.269,0,0,1,454.775,445.895Z" transform="translate(-375.967 -399.633)" fill="#ffbeb4"/>
            <path id="Path_24" data-name="Path 24" d="M417.9,445.895h0a2.269,2.269,0,0,1-2.458-1.828l-2.28-41.184h9.476l-2.28,41.184A2.269,2.269,0,0,1,417.9,445.895Z" transform="translate(-371.683 -399.633)" fill="#ffbeb4"/>
          </g>
          <g id="Group_33" data-name="Group 33" transform="translate(43.224 73.88)">
            <circle id="Ellipse_6" data-name="Ellipse 6" cx="10.45" cy="10.45" r="10.45" transform="translate(0 36.048) rotate(-77.36)" fill="#ffa49a"/>
            <path id="Path_25" data-name="Path 25" d="M433.648,377.3H422.873a1.086,1.086,0,0,1-1.087-1.086h0a1.087,1.087,0,0,1,1.087-1.087h10.775a1.087,1.087,0,0,1,1.087,1.087h0A1.086,1.086,0,0,1,433.648,377.3Z" transform="translate(-415.909 -357.768)" fill="#ffa49a"/>
            <g id="Group_25" data-name="Group 25" transform="translate(5.863)">
              <g id="Group_18" data-name="Group 18" transform="translate(1.44)">
                <path id="Path_26" data-name="Path 26" d="M423.807,355.486a2.481,2.481,0,0,1,.98,1.778,2.422,2.422,0,0,1-.359,2,2.453,2.453,0,0,1-.98-1.778A2.5,2.5,0,0,1,423.807,355.486Z" transform="translate(-423.398 -355.486)" fill="#ffa49a"/>
              </g>
              <g id="Group_21" data-name="Group 21" transform="translate(0 3.521)">
                <rect id="Rectangle_9" data-name="Rectangle 9" width="0.223" height="6.038" transform="matrix(0.987, -0.162, 0.162, 0.987, 2.347, 0.214)" fill="#ffa49a"/>
                <g id="Group_19" data-name="Group 19">
                  <path id="Path_27" data-name="Path 27" d="M427.137,359.471a2.13,2.13,0,0,0-1.574,1.1,2.424,2.424,0,0,0-.46,1.972,2.1,2.1,0,0,0,1.575-1.1A2.509,2.509,0,0,0,427.137,359.471Z" transform="translate(-422.149 -359.47)" fill="#ffa49a"/>
                  <path id="Path_28" data-name="Path 28" d="M421.77,360.391a2.131,2.131,0,0,1,1.845.543,2.424,2.424,0,0,1,1.066,1.721,2.1,2.1,0,0,1-1.845-.542A2.51,2.51,0,0,1,421.77,360.391Z" transform="translate(-421.77 -359.57)" fill="#ffa49a"/>
                </g>
                <g id="Group_20" data-name="Group 20" transform="translate(0.481 2.92)">
                  <path id="Path_29" data-name="Path 29" d="M422.314,363.7a2.135,2.135,0,0,1,1.845.543,2.428,2.428,0,0,1,1.067,1.722h0a2.108,2.108,0,0,1-1.845-.542A2.5,2.5,0,0,1,422.314,363.7Z" transform="translate(-422.314 -362.874)" fill="#ffa49a"/>
                  <path id="Path_30" data-name="Path 30" d="M427.68,362.775a2.134,2.134,0,0,0-1.574,1.106,2.425,2.425,0,0,0-.459,1.971h0a2.1,2.1,0,0,0,1.574-1.1A2.5,2.5,0,0,0,427.68,362.775Z" transform="translate(-422.693 -362.774)" fill="#ffa49a"/>
                </g>
              </g>
              <g id="Group_24" data-name="Group 24" transform="translate(0.958 9.348)">
                <rect id="Rectangle_10" data-name="Rectangle 10" width="0.223" height="6.038" transform="matrix(0.987, -0.162, 0.162, 0.987, 2.348, 0.214)" fill="#ffa49a"/>
                <g id="Group_22" data-name="Group 22">
                  <path id="Path_31" data-name="Path 31" d="M428.221,366.064a2.13,2.13,0,0,0-1.574,1.1,2.425,2.425,0,0,0-.459,1.973,2.107,2.107,0,0,0,1.574-1.1A2.509,2.509,0,0,0,428.221,366.064Z" transform="translate(-423.233 -366.063)" fill="#ffa49a"/>
                  <path id="Path_32" data-name="Path 32" d="M422.854,366.984a2.131,2.131,0,0,1,1.845.543,2.426,2.426,0,0,1,1.067,1.722,2.108,2.108,0,0,1-1.845-.542A2.511,2.511,0,0,1,422.854,366.984Z" transform="translate(-422.854 -366.163)" fill="#ffa49a"/>
                </g>
                <g id="Group_23" data-name="Group 23" transform="translate(0.481 2.921)">
                  <path id="Path_33" data-name="Path 33" d="M423.4,370.289a2.131,2.131,0,0,1,1.845.543,2.423,2.423,0,0,1,1.066,1.721h0a2.106,2.106,0,0,1-1.845-.542A2.5,2.5,0,0,1,423.4,370.289Z" transform="translate(-423.398 -369.468)" fill="#ffa49a"/>
                  <path id="Path_34" data-name="Path 34" d="M428.764,369.369a2.13,2.13,0,0,0-1.574,1.1,2.426,2.426,0,0,0-.459,1.972h0a2.106,2.106,0,0,0,1.575-1.1A2.5,2.5,0,0,0,428.764,369.369Z" transform="translate(-423.777 -369.368)" fill="#ffa49a"/>
                </g>
              </g>
              <rect id="Rectangle_11" data-name="Rectangle 11" width="0.223" height="6.038" transform="matrix(0.987, -0.162, 0.162, 0.987, 4.264, 15.389)" fill="#ffa49a"/>
            </g>
            <g id="Group_32" data-name="Group 32" transform="translate(12.955 4.309)">
              <g id="Group_31" data-name="Group 31">
                <g id="Group_26" data-name="Group 26" transform="translate(3.085)">
                  <path id="Path_35" data-name="Path 35" d="M434.3,360.361a2.016,2.016,0,0,1,.367,1.761,1.969,1.969,0,0,1-.968,1.514,1.991,1.991,0,0,1-.368-1.76A2.035,2.035,0,0,1,434.3,360.361Z" transform="translate(-433.285 -360.361)" fill="#ffa49a"/>
                </g>
                <g id="Group_29" data-name="Group 29" transform="translate(0.463 2.952)">
                  <rect id="Rectangle_12" data-name="Rectangle 12" width="5.251" height="0.223" transform="translate(1.985 5.414) rotate(-79.579)" fill="#ffa49a"/>
                  <g id="Group_27" data-name="Group 27" transform="translate(0.466)">
                    <path id="Path_36" data-name="Path 36" d="M436.158,364.726a2.283,2.283,0,0,0-1.836.4,1.97,1.97,0,0,0-1.054,1.462,2.255,2.255,0,0,0,1.836-.4A2.036,2.036,0,0,0,436.158,364.726Z" transform="translate(-431.126 -363.812)" fill="#ffa49a"/>
                    <path id="Path_37" data-name="Path 37" d="M430.905,363.7a2.277,2.277,0,0,1,1.572,1.027,1.97,1.97,0,0,1,.466,1.741,2.257,2.257,0,0,1-1.573-1.027A2.035,2.035,0,0,1,430.905,363.7Z" transform="translate(-430.845 -363.701)" fill="#ffa49a"/>
                  </g>
                  <g id="Group_28" data-name="Group 28" transform="translate(0 2.531)">
                    <path id="Path_38" data-name="Path 38" d="M430.378,366.565a2.282,2.282,0,0,1,1.573,1.028,1.967,1.967,0,0,1,.465,1.74h0a2.254,2.254,0,0,1-1.573-1.027A2.034,2.034,0,0,1,430.378,366.565Z" transform="translate(-430.318 -366.565)" fill="#ffa49a"/>
                    <path id="Path_39" data-name="Path 39" d="M435.631,367.591a2.28,2.28,0,0,0-1.836.4,1.971,1.971,0,0,0-1.054,1.461h0a2.254,2.254,0,0,0,1.836-.4A2.033,2.033,0,0,0,435.631,367.591Z" transform="translate(-430.599 -366.676)" fill="#ffa49a"/>
                  </g>
                </g>
                <rect id="Rectangle_13" data-name="Rectangle 13" width="5.251" height="0.223" transform="matrix(0.181, -0.984, 0.984, 0.181, 1.519, 13.417)" fill="#ffa49a"/>
                <g id="Group_30" data-name="Group 30" transform="translate(0 8.003)">
                  <path id="Path_40" data-name="Path 40" d="M435.107,370.441a2.28,2.28,0,0,0-1.836.4,1.968,1.968,0,0,0-1.054,1.461,2.255,2.255,0,0,0,1.836-.4A2.035,2.035,0,0,0,435.107,370.441Z" transform="translate(-430.075 -369.527)" fill="#ffa49a"/>
                  <path id="Path_41" data-name="Path 41" d="M429.854,369.416a2.277,2.277,0,0,1,1.572,1.027,1.97,1.97,0,0,1,.466,1.741,2.252,2.252,0,0,1-1.573-1.027A2.034,2.034,0,0,1,429.854,369.416Z" transform="translate(-429.794 -369.416)" fill="#ffa49a"/>
                </g>
              </g>
              <rect id="Rectangle_14" data-name="Rectangle 14" width="5.251" height="0.223" transform="translate(0.59 18.468) rotate(-79.579)" fill="#ffa49a"/>
            </g>
          </g>
          <g id="Group_42" data-name="Group 42" transform="translate(60.444)">
            <g id="Group_41" data-name="Group 41" transform="translate(4.202 28.111)">
              <g id="Group_34" data-name="Group 34" transform="translate(2.279)">
                <path id="Path_42" data-name="Path 42" d="M442.72,303.7a3.23,3.23,0,0,1,1,2.445,3.156,3.156,0,0,1-.761,2.53,3.191,3.191,0,0,1-1-2.445A3.262,3.262,0,0,1,442.72,303.7Z" transform="translate(-441.952 -303.7)" fill="#ffbeb4"/>
              </g>
              <g id="Group_37" data-name="Group 37" transform="translate(0 4.889)">
                <rect id="Rectangle_15" data-name="Rectangle 15" width="0.291" height="7.858" transform="translate(3.136 0.014) rotate(-2.766)" fill="#ffbeb4"/>
                <g id="Group_35" data-name="Group 35" transform="translate(0 0.119)">
                  <path id="Path_43" data-name="Path 43" d="M446.409,309.38a2.77,2.77,0,0,0-2.2,1.194,3.151,3.151,0,0,0-.887,2.481,2.74,2.74,0,0,0,2.2-1.193A3.259,3.259,0,0,0,446.409,309.38Z" transform="translate(-439.827 -309.366)" fill="#ffbeb4"/>
                  <path id="Path_44" data-name="Path 44" d="M439.385,309.736a2.774,2.774,0,0,1,2.3.977,3.156,3.156,0,0,1,1.122,2.384,2.737,2.737,0,0,1-2.3-.976A3.259,3.259,0,0,1,439.385,309.736Z" transform="translate(-439.374 -309.405)" fill="#ffbeb4"/>
                </g>
                <g id="Group_36" data-name="Group 36" transform="translate(0.186 3.966)">
                  <path id="Path_45" data-name="Path 45" d="M439.595,314.089a2.772,2.772,0,0,1,2.3.977,3.155,3.155,0,0,1,1.122,2.384h0a2.743,2.743,0,0,1-2.3-.977A3.262,3.262,0,0,1,439.595,314.089Z" transform="translate(-439.584 -313.758)" fill="#ffbeb4"/>
                  <path id="Path_46" data-name="Path 46" d="M446.62,313.733a2.774,2.774,0,0,0-2.2,1.194,3.157,3.157,0,0,0-.887,2.481h0a2.738,2.738,0,0,0,2.2-1.193A3.261,3.261,0,0,0,446.62,313.733Z" transform="translate(-440.038 -313.719)" fill="#ffbeb4"/>
                </g>
              </g>
              <g id="Group_40" data-name="Group 40" transform="translate(0.371 12.565)">
                <rect id="Rectangle_16" data-name="Rectangle 16" width="0.291" height="7.858" transform="translate(3.136 0.014) rotate(-2.765)" fill="#ffbeb4"/>
                <g id="Group_38" data-name="Group 38" transform="translate(0 0.119)">
                  <path id="Path_47" data-name="Path 47" d="M446.829,318.065a2.774,2.774,0,0,0-2.2,1.194,3.158,3.158,0,0,0-.887,2.482,2.742,2.742,0,0,0,2.2-1.194A3.263,3.263,0,0,0,446.829,318.065Z" transform="translate(-440.247 -318.051)" fill="#ffbeb4"/>
                  <path id="Path_48" data-name="Path 48" d="M439.8,318.421a2.774,2.774,0,0,1,2.3.977,3.158,3.158,0,0,1,1.122,2.385,2.742,2.742,0,0,1-2.305-.976A3.258,3.258,0,0,1,439.8,318.421Z" transform="translate(-439.793 -318.09)" fill="#ffbeb4"/>
                </g>
                <g id="Group_39" data-name="Group 39" transform="translate(0.186 3.966)">
                  <path id="Path_49" data-name="Path 49" d="M440.015,322.774a2.777,2.777,0,0,1,2.3.977,3.155,3.155,0,0,1,1.122,2.384h0a2.742,2.742,0,0,1-2.3-.976A3.262,3.262,0,0,1,440.015,322.774Z" transform="translate(-440.004 -322.443)" fill="#ffbeb4"/>
                  <path id="Path_50" data-name="Path 50" d="M447.039,322.418a2.775,2.775,0,0,0-2.2,1.194,3.153,3.153,0,0,0-.886,2.481h0a2.742,2.742,0,0,0,2.2-1.194A3.262,3.262,0,0,0,447.039,322.418Z" transform="translate(-440.457 -322.404)" fill="#ffbeb4"/>
                </g>
              </g>
              <rect id="Rectangle_17" data-name="Rectangle 17" width="0.291" height="7.858" transform="translate(3.877 20.256) rotate(-2.766)" fill="#ffbeb4"/>
            </g>
            <path id="Path_51" data-name="Path 51" d="M448.46,391.387h-8.22a5.619,5.619,0,0,1-5.6-6.074l4.269-52.458h10.884l4.269,52.458A5.619,5.619,0,0,1,448.46,391.387Z" transform="translate(-434.62 -278.976)" fill="#ffbeb4"/>
            <path id="Path_52" data-name="Path 52" d="M451.142,332.67H438.025a1.39,1.39,0,0,1-1.39-1.39h0a1.39,1.39,0,0,1,1.39-1.389h13.117a1.39,1.39,0,0,1,1.39,1.389h0A1.39,1.39,0,0,1,451.142,332.67Z" transform="translate(-434.854 -278.632)" fill="#ffbeb4"/>
            <line id="Line_3" data-name="Line 3" y1="52.697" x2="3.653" transform="translate(11.373 11.743)" fill="none" stroke="#ffbeb4" stroke-miterlimit="10" stroke-width="1"/>
            <line id="Line_4" data-name="Line 4" x1="0.83" y1="52.817" transform="translate(10.958 6.591)" fill="none" stroke="#ffbeb4" stroke-miterlimit="10" stroke-width="1.5"/>
            <line id="Line_5" data-name="Line 5" y1="52.101" x2="8.71" transform="translate(10.671 15.563)" fill="none" stroke="#ffbeb4" stroke-miterlimit="10" stroke-width="1"/>
            <path id="Path_53" data-name="Path 53" d="M444.6,279.374a.929.929,0,1,1-.929-.929A.929.929,0,0,1,444.6,279.374Z" transform="translate(-435.564 -272.655)" fill="none" stroke="#ffbeb4" stroke-miterlimit="10" stroke-width="1"/>
            <circle id="Ellipse_7" data-name="Ellipse 7" cx="2.226" cy="2.226" r="2.226" transform="translate(11.788)" fill="none" stroke="#ffbeb4" stroke-miterlimit="10" stroke-width="1"/>
            <circle id="Ellipse_8" data-name="Ellipse 8" cx="0.735" cy="0.735" r="0.735" transform="translate(17.768 12.23)" fill="none" stroke="#ffbeb4" stroke-miterlimit="10" stroke-width="1"/>
            <path id="Path_54" data-name="Path 54" d="M458.208,304.391a.691.691,0,1,1-.691-.691A.691.691,0,0,1,458.208,304.391Z" transform="translate(-437.2 -275.589)" fill="none" stroke="#ffbeb4" stroke-miterlimit="10" stroke-width="1"/>
            <circle id="Ellipse_9" data-name="Ellipse 9" cx="1.202" cy="1.202" r="1.202" transform="translate(2.168 20.57)" fill="none" stroke="#ffbeb4" stroke-miterlimit="10" stroke-width="1"/>
          </g>
          <g id="Group_43" data-name="Group 43" transform="translate(4.303 77.657)">
            <rect id="Rectangle_18" data-name="Rectangle 18" width="30.636" height="33.377" fill="#ffa49a"/>
            <rect id="Rectangle_19" data-name="Rectangle 19" width="23.767" height="25.893" transform="translate(3.435 3.742)" fill="#ffbeb4"/>
          </g>
        </g>
        <g id="Group_61" data-name="Group 61" transform="translate(0 45.714)">
          <rect id="Rectangle_20" data-name="Rectangle 20" width="4.93" height="218.07" transform="translate(32.146 55.719)" fill="#ffa49a"/>
          <path id="Path_55" data-name="Path 55" d="M75.671,441.925H25.356c0-5.382,11.269-9.744,25.162-9.744S75.671,436.543,75.671,441.925Z" transform="translate(-15.903 -160.178)" fill="#ffa49a"/>
          <path id="Path_56" data-name="Path 56" d="M83.88,183.132H14.66l1.282-4.49.256-.884,2.324-8.131.256-.884L31.452,124.42h37.4l11.339,44.323.23.884,2.077,8.131.23.884Z" transform="translate(-14.66 -124.42)" fill="#ffa49a"/>
          <g id="Group_60" data-name="Group 60" transform="translate(1.282 44.323)">
            <g id="Group_45" data-name="Group 45" transform="translate(0.903 2.873)">
              <path id="Path_57" data-name="Path 57" d="M19.488,177.821,17.132,181.9h4.712Z" transform="translate(-17.132 -177.821)" fill="#fffffe"/>
            </g>
            <g id="Group_46" data-name="Group 46" transform="translate(6.244 2.873)">
              <path id="Path_58" data-name="Path 58" d="M25.531,181.9l-2.356-4.081h4.712Z" transform="translate(-23.175 -177.821)" fill="#fffffe"/>
            </g>
            <g id="Group_47" data-name="Group 47" transform="translate(10.956 2.873)">
              <path id="Path_59" data-name="Path 59" d="M30.863,177.821,28.507,181.9h4.712Z" transform="translate(-28.507 -177.821)" fill="#fffffe"/>
            </g>
            <g id="Group_48" data-name="Group 48" transform="translate(16.297 2.873)">
              <path id="Path_60" data-name="Path 60" d="M36.905,181.9l-2.356-4.081h4.712Z" transform="translate(-34.549 -177.821)" fill="#fffffe"/>
            </g>
            <g id="Group_49" data-name="Group 49" transform="translate(21.009 2.873)">
              <path id="Path_61" data-name="Path 61" d="M42.237,177.821,39.881,181.9h4.712Z" transform="translate(-39.881 -177.821)" fill="#fffffe"/>
            </g>
            <g id="Group_50" data-name="Group 50" transform="translate(26.35 2.873)">
              <path id="Path_62" data-name="Path 62" d="M48.28,181.9l-2.356-4.081h4.712Z" transform="translate(-45.924 -177.821)" fill="#fffffe"/>
            </g>
            <g id="Group_51" data-name="Group 51" transform="translate(31.062 2.873)">
              <path id="Path_63" data-name="Path 63" d="M53.612,177.821,51.255,181.9h4.712Z" transform="translate(-51.255 -177.821)" fill="#fffffe"/>
            </g>
            <g id="Group_52" data-name="Group 52" transform="translate(36.403 2.873)">
              <path id="Path_64" data-name="Path 64" d="M59.654,181.9,57.3,177.821H62.01Z" transform="translate(-57.298 -177.821)" fill="#fffffe"/>
            </g>
            <g id="Group_53" data-name="Group 53" transform="translate(41.115 2.873)">
              <path id="Path_65" data-name="Path 65" d="M64.986,177.821,62.63,181.9h4.712Z" transform="translate(-62.63 -177.821)" fill="#fffffe"/>
            </g>
            <g id="Group_54" data-name="Group 54" transform="translate(46.455 2.873)">
              <path id="Path_66" data-name="Path 66" d="M71.029,181.9l-2.356-4.081h4.712Z" transform="translate(-68.673 -177.821)" fill="#fffffe"/>
            </g>
            <g id="Group_55" data-name="Group 55" transform="translate(51.168 2.873)">
              <path id="Path_67" data-name="Path 67" d="M76.361,177.821,74,181.9h4.712Z" transform="translate(-74.004 -177.821)" fill="#fffffe"/>
            </g>
            <g id="Group_56" data-name="Group 56" transform="translate(56.508 2.873)">
              <path id="Path_68" data-name="Path 68" d="M82.4,181.9l-2.356-4.081h4.712Z" transform="translate(-80.047 -177.821)" fill="#fffffe"/>
            </g>
            <g id="Group_57" data-name="Group 57" transform="translate(61.221 2.873)">
              <path id="Path_69" data-name="Path 69" d="M87.735,177.821,85.379,181.9h4.712Z" transform="translate(-85.379 -177.821)" fill="#fffffe"/>
            </g>
            <g id="Group_58" data-name="Group 58" transform="translate(2.581)">
              <path id="Path_70" data-name="Path 70" d="M80.932,175.454H19.03l.256-.884H80.7Z" transform="translate(-19.03 -174.57)" fill="#fffffe"/>
            </g>
            <g id="Group_59" data-name="Group 59" transform="translate(0 9.015)">
              <path id="Path_71" data-name="Path 71" d="M82.9,185.654H16.11l.256-.884h66.3Z" transform="translate(-16.11 -184.77)" fill="#fffffe"/>
            </g>
          </g>
        </g>
        <g id="Group_64" data-name="Group 64" transform="translate(29.688 117.195)">
          <path id="Path_72" data-name="Path 72" d="M101.726,331.552c1.8-6.979,5.685-13.219,9.665-19.229,3.538-5.343,7.237-10.647,11.9-15.037s10.418-7.847,16.751-8.823l-4.64,14.952c-1.548,4.986-3.144,10.072-6.2,14.306a32.411,32.411,0,0,1-12.747,9.97,96.8,96.8,0,0,1-15.482,5.224" transform="translate(-54.377 -214.961)" fill="#006837" stroke="#006837" stroke-miterlimit="10" stroke-width="0.25"/>
          <path id="Path_73" data-name="Path 73" d="M89.172,357.5l20.938-44.768" transform="translate(-53.005 -217.781)" fill="none" stroke="#39b54a" stroke-miterlimit="10" stroke-width="0.5"/>
          <path id="Path_74" data-name="Path 74" d="M90.587,321.321c.066-7.535,1.983-14.915,3.888-22.2q3.183-12.178,6.364-24.355" transform="translate(-53.169 -213.369)" fill="none" stroke="#39b54a" stroke-miterlimit="10" stroke-width="0.25"/>
          <path id="Path_75" data-name="Path 75" d="M75.462,325.366c-6.663-5.921-13.384-11.9-18.6-19.132s-8.879-15.9-8.594-24.812c4.255,6.743,13.232,9.259,17.658,15.892a30.977,30.977,0,0,1,3.192,7.187l7.222,20.874" transform="translate(-48.25 -214.143)" fill="#006837" stroke="#006837" stroke-miterlimit="10" stroke-width="0.25"/>
          <path id="Path_76" data-name="Path 76" d="M65.025,293.988a221.832,221.832,0,0,1,21.3,70.835" transform="translate(-50.199 -215.603)" fill="none" stroke="#39b54a" stroke-miterlimit="10" stroke-width="0.5"/>
          <path id="Path_77" data-name="Path 77" d="M86.11,264.132a105.084,105.084,0,0,1,.457-58.834,65.854,65.854,0,0,1,9.054,18.883,51.732,51.732,0,0,1,1.768,23.15,36.272,36.272,0,0,1-10.557,20.442" transform="translate(-52.187 -205.298)" fill="#006837" stroke="#006837" stroke-miterlimit="10" stroke-width="0.25"/>
          <path id="Path_78" data-name="Path 78" d="M104.037,324.547c-1.447-9.618,1.64-19.477,6.654-27.812s11.861-15.385,18.644-22.353a62.159,62.159,0,0,1-7.892,38.633,28.035,28.035,0,0,1-6.969,8.469,13.527,13.527,0,0,1-10.335,2.872" transform="translate(-54.691 -213.325)" fill="#39b54a" stroke="#39b54a" stroke-miterlimit="10" stroke-width="0.25"/>
          <path id="Path_79" data-name="Path 79" d="M92.4,302.9c-.826-11.759,1.545-23.567,5.419-34.7s9.226-21.684,14.563-32.195c3.543,12.026,4.674,24.962,1.685,37.138S103.7,296.651,92.909,303.036" transform="translate(-53.361 -208.866)" fill="#39b54a" stroke="#39b54a" stroke-miterlimit="10" stroke-width="0.25"/>
          <path id="Path_80" data-name="Path 80" d="M85.055,263.6a330.025,330.025,0,0,1,2.825,93.445" transform="translate(-52.527 -212.072)" fill="none" stroke="#39b54a" stroke-miterlimit="10" stroke-width="0.5"/>
          <path id="Path_81" data-name="Path 81" d="M85.317,267.605c-5.078-4.243-9.509-11.441-10.7-17.95s-.844-13.191-.432-19.8.882-13.266-.072-19.814a107.034,107.034,0,0,1,12.411,21.57c2.484,5.788,4.475,11.9,4.7,18.19s-1.478,12.835-5.639,17.563" transform="translate(-51.219 -205.85)" fill="#39b54a" stroke="#39b54a" stroke-miterlimit="10" stroke-width="0.25"/>
          <path id="Path_82" data-name="Path 82" d="M75.535,319.881c2.565-9,1.051-21.284-3.241-29.6s-10.989-15.2-18.408-20.911c.4,9.6,1.145,19.327,4.347,28.387s8.718,17.806,17.3,22.128" transform="translate(-48.905 -212.742)" fill="#39b54a" stroke="#39b54a" stroke-miterlimit="10" stroke-width="0.25"/>
          <g id="Group_63" data-name="Group 63" transform="translate(8.25 140.507)">
            <g id="Group_62" data-name="Group 62" transform="translate(0 3.67)">
              <path id="Path_83" data-name="Path 83" d="M113.42,401.782c0,14.958-5.8,27.984-14.385,34.76H71.97c-8.58-6.776-14.385-19.8-14.385-34.76,0-13.976,5.07-26.266,12.738-33.354h30.36C108.35,375.516,113.42,387.806,113.42,401.782Z" transform="translate(-57.585 -368.428)" fill="#ffbeb4"/>
              <path id="Path_84" data-name="Path 84" d="M73.979,384.764l-7.271,12.594H81.25Z" transform="translate(-58.645 -370.326)" fill="none" stroke="#fff" stroke-miterlimit="10" stroke-width="1"/>
              <path id="Path_85" data-name="Path 85" d="M74.328,388.236l-4.614,7.991h9.227Z" transform="translate(-58.994 -370.729)" fill="none" stroke="#fff" stroke-miterlimit="10" stroke-width="0.5"/>
              <path id="Path_86" data-name="Path 86" d="M85.655,430.887l-8.782,5.071V425.816Z" transform="translate(-59.826 -375.096)" fill="none" stroke="#fff" stroke-miterlimit="10" stroke-width="0.75"/>
              <path id="Path_87" data-name="Path 87" d="M82.931,431.219l-4.408,2.545v-5.09Z" transform="translate(-60.018 -375.428)" fill="none" stroke="#fff" stroke-miterlimit="10" stroke-width="0.5"/>
              <path id="Path_88" data-name="Path 88" d="M99.828,372.615l-7.039,12.192h14.078Z" transform="translate(-61.675 -368.914)" fill="none" stroke="#fff" stroke-miterlimit="10" stroke-width="1"/>
              <path id="Path_89" data-name="Path 89" d="M100.354,377.848,97.321,383.1h6.068Z" transform="translate(-62.202 -369.522)" fill="none" stroke="#fff" stroke-miterlimit="10" stroke-width="0.5"/>
              <path id="Path_90" data-name="Path 90" d="M99.691,430.741l-8.084-18.572h16.169Z" transform="translate(-61.538 -373.51)" fill="none" stroke="#fff" stroke-miterlimit="10" stroke-width="1"/>
              <path id="Path_91" data-name="Path 91" d="M100.079,426.513l-5.13-11.784h10.259Z" transform="translate(-61.926 -373.808)" fill="none" stroke="#fff" stroke-miterlimit="10" stroke-width="0.5"/>
              <path id="Path_92" data-name="Path 92" d="M70.439,415.121a2.246,2.246,0,1,1,2.246,2.247A2.246,2.246,0,0,1,70.439,415.121Z" transform="translate(-59.078 -373.592)" fill="none" stroke="#fff" stroke-miterlimit="10" stroke-width="1"/>
              <circle id="Ellipse_10" data-name="Ellipse 10" cx="3.607" cy="3.607" r="3.607" transform="translate(34.546 23.01)" fill="none" stroke="#fff" stroke-miterlimit="10" stroke-width="1"/>
              <circle id="Ellipse_11" data-name="Ellipse 11" cx="1.405" cy="1.405" r="1.405" transform="translate(22.217 6.307)" fill="none" stroke="#fff" stroke-miterlimit="10" stroke-width="1"/>
              <path id="Path_93" data-name="Path 93" d="M104.44,370.787a142.741,142.741,0,0,1-31.959,64.989c.4.357.8.712,1.22,1.04h27.065c8.58-6.776,14.385-19.8,14.385-34.76C115.151,389.358,110.957,378.065,104.44,370.787Z" transform="translate(-59.316 -368.702)" fill="#ffbeb4" opacity="0.25" style="mix-blend-mode: multiply;isolation: isolate"/>
            </g>
            <rect id="Rectangle_21" data-name="Rectangle 21" width="33.594" height="3.67" rx="1.835" transform="translate(11.12)" fill="#ffbeb4"/>
          </g>
          <path id="Path_94" data-name="Path 94" d="M108.466,319.558a110.148,110.148,0,0,1,17.561-31.245" transform="translate(-55.247 -214.943)" fill="none" stroke="#006837" stroke-miterlimit="10" stroke-width="1"/>
          <path id="Path_95" data-name="Path 95" d="M83.972,262.26q-1.59-16.411-3.65-32.771" transform="translate(-51.977 -208.109)" fill="none" stroke="#006837" stroke-miterlimit="10" stroke-width="1"/>
          <path id="Path_96" data-name="Path 96" d="M60.983,284.018a133.578,133.578,0,0,1,12.273,30.859" transform="translate(-49.73 -214.444)" fill="none" stroke="#006837" stroke-miterlimit="10" stroke-width="1"/>
          <path id="Path_97" data-name="Path 97" d="M96.927,293.534a201.922,201.922,0,0,0,14.206-41.171" transform="translate(-53.906 -210.766)" fill="none" stroke="#006837" stroke-miterlimit="10" stroke-width="1"/>
        </g>
        <g id="Group_65" data-name="Group 65" transform="translate(283.147 63.873)">
          <rect id="Rectangle_22" data-name="Rectangle 22" width="113.784" height="58.215" fill="none" stroke="#ffbeb4" stroke-miterlimit="10" stroke-width="3"/>
          <rect id="Rectangle_23" data-name="Rectangle 23" width="88.959" height="40.43" transform="translate(12.413 8.893)" fill="#ffbeb4"/>
        </g>
        <g id="Group_66" data-name="Group 66" transform="translate(66.385 0.743)">
          <path id="Path_98" data-name="Path 98" d="M129.925,89.372l-3.915,6.781h7.83Z" transform="translate(-93.983 -75.377)" fill="#fff"/>
          <rect id="Rectangle_24" data-name="Rectangle 24" width="64.631" height="54.123" fill="none" stroke="#ffbeb4" stroke-miterlimit="10" stroke-width="3"/>
          <rect id="Rectangle_25" data-name="Rectangle 25" width="36.822" height="30.836" transform="translate(13.904 11.644)" fill="#ffbeb4"/>
        </g>
        <g id="Group_81" data-name="Group 81" transform="translate(106.698 133.169)">
          <path id="Rectangle_26" data-name="Rectangle 26" d="M33.213,0H92.428a33.213,33.213,0,0,1,33.213,33.213v67.895a0,0,0,0,1,0,0H0a0,0,0,0,1,0,0V33.213A33.213,33.213,0,0,1,33.213,0Z" transform="translate(35.329 31.26)" fill="#222256"/>
          <rect id="Rectangle_27" data-name="Rectangle 27" width="95.903" height="15.794" transform="translate(50.198 116.574)" fill="#00000c"/>
          <rect id="Rectangle_28" data-name="Rectangle 28" width="103.338" height="40.146" transform="translate(42.764 132.368)" fill="#3847dc"/>
          <path id="Path_99" data-name="Path 99" d="M294.406,424.512H182.148a5.947,5.947,0,0,1-5.948-5.947H300.354A5.947,5.947,0,0,1,294.406,424.512Z" transform="translate(-140.127 -246.051)" fill="#00000c"/>
          <path id="Path_100" data-name="Path 100" d="M179.076,443.88h-3.717l6.691-18.586h5.2Z" transform="translate(-140.03 -246.833)" fill="#00000c"/>
          <path id="Path_101" data-name="Path 101" d="M312.236,443.88h3.717l-6.691-18.586h-5.2Z" transform="translate(-154.983 -246.833)" fill="#00000c"/>
          <path id="Path_102" data-name="Path 102" d="M162.129,266.144a20.182,20.182,0,0,1-8.042-9.89,14.236,14.236,0,0,1,1.305-12.445,11.052,11.052,0,0,1,11.233-4.766c.175-5.694,5.412-9.836,10.477-12.443,5.575-2.87,11.4-4.538,17.1-1.924,3.172,1.455,6.509,3.83,8.189,6.89a47.783,47.783,0,0,1,3.654,9.789,11.542,11.542,0,0,1,16.916,13.36c4.508-1.908,9.97-2.759,14.114-.154,4.358,2.74,5.861,8.373,6.16,13.512.257,4.418-.184,9.1-2.7,12.747-2.973,4.316-8.226,6.35-13.206,7.983-8.61,2.823-17.477,5.181-26.535,5.449s-18.39-1.7-25.82-6.882-12.674-13.886-12.408-22.943" transform="translate(-137.459 -223.372)" fill="#1a1a1a"/>
          <path id="Path_103" data-name="Path 103" d="M155.31,278.875a12.673,12.673,0,0,0-9.623,20.03,10.482,10.482,0,0,0-8.587,16.278,15.309,15.309,0,0,0,7.568,5.461c8.213,3.085,17.544,2.04,25.7-1.2,4.682-1.861,9.183-4.507,12.34-8.433s4.8-9.287,3.436-14.138a17.232,17.232,0,0,0-5.987-8.465,48.412,48.412,0,0,0-9.025-5.391c-5.408-2.7-11.077-5.362-17.119-5.472" transform="translate(-135.385 -229.666)"/>
          <path id="Path_104" data-name="Path 104" d="M182.6,342.315h-26.02a14.869,14.869,0,0,1-14.869-14.868h0a14.869,14.869,0,0,1,14.869-14.869H177.2a5.4,5.4,0,0,1,5.4,5.4Z" transform="translate(-136.12 -233.737)" fill="#3847dc"/>
          <path id="Rectangle_29" data-name="Rectangle 29" d="M0,0H15.88a12.37,12.37,0,0,1,12.37,12.37v81.3a0,0,0,0,1,0,0H12.37A12.37,12.37,0,0,1,0,81.3V0A0,0,0,0,1,0,0Z" transform="translate(21.948 78.841)" fill="#3847dc"/>
          <g id="Group_67" data-name="Group 67" transform="translate(53.258 4.736)">
            <path id="Path_105" data-name="Path 105" d="M195.645,228.783s8.453-1.161,10.707,7.517" transform="translate(-195.645 -228.731)" fill="none" stroke="#fff" stroke-miterlimit="10" stroke-width="1"/>
            <path id="Path_106" data-name="Path 106" d="M240.155,261.717s9.043.7,9.407,9.581" transform="translate(-200.816 -232.564)" fill="none" stroke="#fff" stroke-miterlimit="10" stroke-width="1"/>
            <path id="Path_107" data-name="Path 107" d="M223.306,247.036s3.89,1.114,4.232,4.486" transform="translate(-198.859 -230.858)" fill="none" stroke="#fff" stroke-miterlimit="10" stroke-width="0.5"/>
          </g>
          <path id="Path_108" data-name="Path 108" d="M228.621,284.489a14.822,14.822,0,0,0-1.6-12.111c-2.35-3.483-6.856-5.583-10.921-4.522,1.248-2.929-.56-6.418-3.19-8.214s-5.879-2.351-8.984-3.056a77.639,77.639,0,0,1-25.7-11.019c-3.947-2.623-4.6-2.03-6.47-6.269-1.112,1.637-3.3,4.292-3.358,6.323-3.525-3.221-10.6-3.552-13.005.039a14.236,14.236,0,0,0-1.305,12.445,20.183,20.183,0,0,0,8.042,9.89l.445-1.717c-.266,9.057,4.979,17.756,12.408,22.943s16.762,7.149,25.82,6.882c8.349-.247,16.533-2.276,24.506-4.8A22.289,22.289,0,0,0,228.621,284.489Z" transform="translate(-137.459 -225.223)"/>
          <path id="Path_109" data-name="Path 109" d="M179.747,324.481v72.494H165.606V335.833h-3.88a7.406,7.406,0,0,1-7.406-7.406h0a7.407,7.407,0,0,1,7.406-7.406h14.56A3.461,3.461,0,0,1,179.747,324.481Z" transform="translate(-137.585 -234.718)" fill="none" stroke="#3847dc" stroke-miterlimit="10" stroke-width="1" style="mix-blend-mode: multiply;isolation: isolate"/>
          <g id="Group_68" data-name="Group 68" transform="translate(56.9 20.358)">
            <path id="Path_110" data-name="Path 110" d="M199.843,255.829c-.6-4.629,2.338-8.821,6.553-9.364s8.115,2.77,8.711,7.4-2.338,8.821-6.553,9.364S200.439,260.458,199.843,255.829Z" transform="translate(-199.766 -246.407)" fill="#3847dc"/>
            <path id="Path_111" data-name="Path 111" d="M199.843,255.835c.6,4.629,4.5,7.941,8.711,7.4a7.228,7.228,0,0,0,4.417-2.336c-5.229-3.363-6.155-11.691-6.317-14.445-.086.008-.171.007-.258.019C202.181,247.013,199.246,251.205,199.843,255.835Z" transform="translate(-199.766 -246.412)" fill="#3847dc" style="mix-blend-mode: multiply;isolation: isolate"/>
          </g>
          <path id="Path_112" data-name="Path 112" d="M187.135,278.334l2.974,13.382,10.409,2.973s3.716-3.716,3.716-4.461-5.2-14.868-5.2-14.868Z" transform="translate(-141.398 -229.413)" fill="#ff8773"/>
          <path id="Path_113" data-name="Path 113" d="M199.03,275.36l-11.9,2.974,1.016,4.569a26.175,26.175,0,0,0,7.273,1.933,6.969,6.969,0,0,0,4.339-.855,13.663,13.663,0,0,0,1.9-1.372C200.354,278.953,199.03,275.36,199.03,275.36Z" transform="translate(-141.398 -229.413)" fill="#ff8773" style="mix-blend-mode: multiply;isolation: isolate"/>
          <path id="Path_114" data-name="Path 114" d="M168.628,246.772s-1.487,28.993,24.533,30.481c8.178-2.974,13.382-14.126,11.9-23.047s-11.151-23.79-25.277-19.329c-7.434,2.974-11.151,11.9-11.151,11.9" transform="translate(-139.246 -224.614)" fill="#ff8773"/>
          <path id="Path_115" data-name="Path 115" d="M262,280.92l18.908-23.11a5.151,5.151,0,0,0,1.164-3.261v-6.279a1.116,1.116,0,0,1,.763-1.058h0a1.116,1.116,0,0,1,1.468,1.058v4.4l6.69-11.9,8.921-.743L288.02,260.847l-17.842,31.224Z" transform="translate(-150.096 -225.308)" fill="#ff8773"/>
          <path id="Path_116" data-name="Path 116" d="M355.722,262.725l31.224,10.408,9.611-8.093a10.121,10.121,0,0,1,12.61-.471c2.168,1.656,3.3,3.98.825,7.078-5.947,7.434-23.046,15.612-23.046,15.612l-34.942-7.435Z" transform="translate(-160.554 -227.929)" fill="#ff8773"/>
          <path id="Path_117" data-name="Path 117" d="M352.005,279.841l17.352,3.693a44.845,44.845,0,0,0-.56-16.434l-13.074-4.357Z" transform="translate(-160.554 -227.947)" fill="#ff8773" opacity="0.5" style="mix-blend-mode: multiply;isolation: isolate"/>
          <path id="Path_118" data-name="Path 118" d="M247.7,315.189s39.145-43.5,56.654-58.342a14.441,14.441,0,0,1,10.514-3.365c12.921,1.046,39.886,5.949,39.886,5.949s5.2,19.329-4.461,30.481c-5.947-.743-32.711-5.947-32.711-5.947l-54.271,59.474Z" transform="translate(-148.435 -226.865)" fill="#739be0"/>
          <path id="Path_119" data-name="Path 119" d="M363.9,305.642l25.277,28.251,21.077,3.613a6.243,6.243,0,0,1,4.814,8.467c-1,2.362-3.421,5.539-8.792,4.275-12.639-2.973-24.534-6.69-24.534-6.69l-29.738-23.79Z" transform="translate(-160.554 -232.931)" fill="#ff8773"/>
          <path id="Path_120" data-name="Path 120" d="M379.469,323.043l-15.569-17.4-11.9,14.125,20.787,16.63C376.215,332.856,379.124,328.335,379.469,323.043Z" transform="translate(-160.554 -232.931)" fill="#ff8773" opacity="0.5" style="mix-blend-mode: multiply;isolation: isolate"/>
          <path id="Path_121" data-name="Path 121" d="M304.421,266.516l-54.649,53.053,13.78,24.937,54.271-59.474s26.764,5.2,32.711,5.947a20.2,20.2,0,0,0,1.672-2.227c-9.723-7.948-21.325-17.068-29.973-23.438A13.81,13.81,0,0,0,304.421,266.516Z" transform="translate(-148.675 -227.932)" fill="#739be0" opacity="0.2" style="mix-blend-mode: multiply;isolation: isolate"/>
          <g id="Group_69" data-name="Group 69" transform="translate(77.706 40.189)">
            <path id="Path_122" data-name="Path 122" d="M223.306,340.769s13.382,19.33,32.711,17.1c18.045-2.082,38.034-28.137,52.1-50.341a4.064,4.064,0,0,1,6.462-.529c11.067,12.4,30.647,30.8,30.647,30.8s18.586-8.921,18.586-23.047c-5.126-6.151-26.515-28.213-39.3-41.316A15.215,15.215,0,0,0,303.97,272.3L244.122,321.44Z" transform="translate(-223.306 -268.844)" fill="#97b8ff"/>
          </g>
          <path id="Path_123" data-name="Path 123" d="M256.017,361.852c18.045-2.082,38.034-28.137,52.1-50.341a4.064,4.064,0,0,1,6.462-.529c11.067,12.4,30.647,30.8,30.647,30.8a47.734,47.734,0,0,0,8.813-5.825,348.068,348.068,0,0,0-31.6-27.866c-3.59-2.8-7.851-5.677-12.313-4.788-3.882.774-6.607,4.165-8.986,7.329l-15.422,20.523c-5.611,7.466-11.543,15.2-19.951,19.272a29.4,29.4,0,0,1-37.424-10.357l-5.043,4.683S236.688,364.083,256.017,361.852Z" transform="translate(-145.6 -232.64)" fill="#97b8ff" opacity="0.5" style="mix-blend-mode: multiply;isolation: isolate"/>
          <path id="Path_124" data-name="Path 124" d="M304.9,342.315h26.02a14.869,14.869,0,0,0,14.869-14.868h0a14.869,14.869,0,0,0-14.869-14.869H310.3a5.4,5.4,0,0,0-5.405,5.4Z" transform="translate(-155.08 -233.737)" fill="#3847dc"/>
          <path id="Rectangle_30" data-name="Rectangle 30" d="M12.37,0h15.88a0,0,0,0,1,0,0V81.3a12.37,12.37,0,0,1-12.37,12.37H0a0,0,0,0,1,0,0V12.37A12.37,12.37,0,0,1,12.37,0Z" transform="translate(174.352 172.514) rotate(180)" fill="#3847dc"/>
          <path id="Path_125" data-name="Path 125" d="M309.056,324.481v72.494H323.2V335.833h3.88a7.406,7.406,0,0,0,7.406-7.406h0a7.406,7.406,0,0,0-7.406-7.406h-14.56A3.461,3.461,0,0,0,309.056,324.481Z" transform="translate(-155.564 -234.718)" fill="none" stroke="#3847dc" stroke-miterlimit="10" stroke-width="1" style="mix-blend-mode: multiply;isolation: isolate"/>
          <path id="Path_126" data-name="Path 126" d="M171.9,262.118l-12.639,3.717s3.717,12.638,22.3,20.816l2.231-.743s10.4,5.821,13.007-4.152a112.584,112.584,0,0,1,13.644-3.524,18.49,18.49,0,0,1,12.562,1.913l14.869,8.154a3.368,3.368,0,0,0,4.2-.784L252.192,275.5l10.321,7.769L248.2,306.047a3.369,3.369,0,0,1-4.4,1.2l-13.911-7.213,8.177,12.638s-.743,23.047-24.533,26.02c-8.178-8.178-18.586-18.586-24.534-23.046s-25.277-17.1-30.481-22.3-18.586-23.79-19.329-33.455c0-5.2,29.738-8.921,29.738-8.921Z" transform="translate(-135.827 -226.578)" fill="#fffffe"/>
          <path id="Path_127" data-name="Path 127" d="M167.148,291.915a62.12,62.12,0,0,1-24.908-34.135c-1.872.9-3.05,1.868-3.05,2.9.743,9.664,14.125,28.251,19.329,33.455s24.534,17.842,30.481,22.3c1.061.8,2.268,1.786,3.574,2.913C189.4,312.617,182.414,302.382,167.148,291.915Z" transform="translate(-135.827 -227.37)" fill="#f2f2f2" style="mix-blend-mode: multiply;isolation: isolate"/>
          <path id="Path_128" data-name="Path 128" d="M225.758,295.6s9.261-1.951,11.908,7.051l4.41,5.843" transform="translate(-145.885 -231.743)" fill="none" stroke="#97b8ff" stroke-miterlimit="10" stroke-width="1"/>
          <g id="Group_74" data-name="Group 74" transform="translate(38.801 24.786)">
            <path id="Path_129" data-name="Path 129" d="M193.013,259.025c.385.534.569,1.188.92,1.744a1.642,1.642,0,0,0,1.622.888c.788-.183,1.16-1.2,1.946-1.392a1.3,1.3,0,0,1,1.483,1.141,1.965,1.965,0,0,1-.931,1.783,4.229,4.229,0,0,1-2.007.595" transform="translate(-180.882 -252.301)" fill="none" stroke="#000" stroke-miterlimit="10" stroke-width="0.25"/>
            <path id="Path_130" data-name="Path 130" d="M188.981,269.795a6.723,6.723,0,0,0,10.3-1.394" transform="translate(-180.413 -253.39)" fill="none" stroke="#000" stroke-miterlimit="10" stroke-width="0.25"/>
            <path id="Path_131" data-name="Path 131" d="M179.287,256.472a4.7,4.7,0,0,1,5.434-3.054" transform="translate(-179.287 -251.637)" fill="none" stroke="#000" stroke-miterlimit="10" stroke-width="0.25"/>
            <g id="Group_71" data-name="Group 71" transform="translate(0.678 6.064)">
              <line id="Line_6" data-name="Line 6" x1="1.889" y1="0.593" transform="translate(0 3.724)" fill="none" stroke="#000" stroke-miterlimit="10" stroke-width="1"/>
              <g id="Group_70" data-name="Group 70" transform="translate(1.856)">
                <path id="Path_132" data-name="Path 132" d="M182.154,263.371a4.936,4.936,0,0,1,6.473-3.072" transform="translate(-182.154 -258.475)" fill="none" stroke="#000" stroke-miterlimit="10" stroke-width="0.25"/>
                <line id="Line_7" data-name="Line 7" x1="1.176" y1="2.093" transform="translate(0.684)" fill="none" stroke="#000" stroke-miterlimit="10" stroke-width="1"/>
                <line id="Line_8" data-name="Line 8" y1="1.623" x2="0.1" transform="translate(5.549)" fill="none" stroke="#000" stroke-miterlimit="10" stroke-width="1"/>
              </g>
            </g>
            <g id="Group_73" data-name="Group 73" transform="translate(14.457)">
              <line id="Line_9" data-name="Line 9" y1="1.799" x2="0.827" transform="translate(6.968 0.615)" fill="none" stroke="#000" stroke-miterlimit="10" stroke-width="1"/>
              <g id="Group_72" data-name="Group 72">
                <path id="Path_133" data-name="Path 133" d="M203.17,254.5a4.935,4.935,0,0,0-6.621,2.74" transform="translate(-195.75 -251.726)" fill="none" stroke="#000" stroke-miterlimit="10" stroke-width="0.25"/>
                <line id="Line_10" data-name="Line 10" x1="0.764" y1="2.276" transform="translate(3.33)" fill="none" stroke="#000" stroke-miterlimit="10" stroke-width="1"/>
                <line id="Line_11" data-name="Line 11" x1="1.271" y1="1.015" transform="translate(0 3.682)" fill="none" stroke="#000" stroke-miterlimit="10" stroke-width="1"/>
              </g>
            </g>
          </g>
          <g id="Group_77" data-name="Group 77" transform="translate(131.481 5.574)">
            <path id="Path_134" data-name="Path 134" d="M285.919,258.9l8.79-27.579a1.772,1.772,0,0,1,1.641-1.233l15.775-.412a1.771,1.771,0,0,1,1.739,2.289l-8.767,28.64a1.77,1.77,0,0,1-1.766,1.252l-15.8-.649A1.771,1.771,0,0,1,285.919,258.9Z" transform="translate(-284.347 -229.679)"/>
            <path id="Path_135" data-name="Path 135" d="M284.236,258.9l8.791-27.579a1.772,1.772,0,0,1,1.641-1.233l15.774-.412a1.771,1.771,0,0,1,1.74,2.289l-8.767,28.64a1.771,1.771,0,0,1-1.767,1.252l-15.8-.649A1.772,1.772,0,0,1,284.236,258.9Z" transform="translate(-284.151 -229.679)" fill="#2e3192"/>
            <path id="Path_136" data-name="Path 136" d="M309.649,234.526l-5.877,19.188-.84,2.757-.4,1.3a1.427,1.427,0,0,1-1.432,1.016l-3.3-.133-9.527-.389a1.444,1.444,0,0,1-1.317-1.874l4.552-14.282,1.723-5.4.866-2.7a1.122,1.122,0,0,1,.159-.327,1.431,1.431,0,0,1,1.167-.672l.46-.009,12.347-.327A1.44,1.44,0,0,1,309.649,234.526Z" transform="translate(-284.47 -230.027)" fill="#97b8ff"/>
            <g id="Group_75" data-name="Group 75" transform="translate(9.792 2.97)" opacity="0.35">
              <path id="Path_137" data-name="Path 137" d="M304.74,253.757l-.84,2.757-8.67-22.794a1.431,1.431,0,0,1,1.167-.672l.46-.009Z" transform="translate(-295.23 -233.04)" fill="#fff"/>
            </g>
            <g id="Group_76" data-name="Group 76" transform="translate(7.043 6.682)" opacity="0.35">
              <path id="Path_138" data-name="Path 138" d="M302.222,259.247a1.439,1.439,0,0,1-.513.071l-3.3-.133L292.12,242.64l1.723-5.4Z" transform="translate(-292.12 -237.24)" fill="#fff"/>
            </g>
          </g>
          <g id="Group_80" data-name="Group 80" transform="translate(20.845 6.167)">
            <path id="Path_139" data-name="Path 139" d="M171.461,263.995a36.936,36.936,0,0,0,2.3-22.35c1.1,3.548,4.97,5.546,8.655,6.016s7.424-.188,11.134,0,7.72,1.5,9.6,4.7c.343.586.723,1.305,1.4,1.363.841.072,1.332-.917,1.516-1.74a17.815,17.815,0,0,0-5.973-17,20.805,20.805,0,0,0-17.8-4.118,25.075,25.075,0,0,0-15.073,10.7,22.541,22.541,0,0,0-3.882,11.053,16.376,16.376,0,0,0,3.342,11.1,4.355,4.355,0,0,0,2.316,1.7,1.872,1.872,0,0,0,2.272-1.3" transform="translate(-159.474 -230.35)" fill="#1a1a1a"/>
            <g id="Group_79" data-name="Group 79" transform="translate(0 8.495)">
              <ellipse id="Ellipse_12" data-name="Ellipse 12" cx="8.448" cy="9.089" rx="8.448" ry="9.089" transform="matrix(0.98, -0.2, 0.2, 0.98, 0, 17.917)" fill="#3847dc"/>
              <g id="Group_78" data-name="Group 78" transform="translate(4.806)">
                <path id="Path_140" data-name="Path 140" d="M166.346,261.447c-5.022-15.309,1.267-21.077,1.548-21.452l.186-.019.044,0,.184-.011c-.215.3-2.738,7.232,1.388,19.812Z" transform="translate(-164.408 -239.962)" fill="#3847dc"/>
              </g>
              <path id="Path_141" data-name="Path 141" d="M176.525,272.826c-13,3.449-15.131-3.513-15.106-8.53a9.524,9.524,0,0,0-.42,5.316c1,4.918,5.523,8.15,10.094,7.218A8.151,8.151,0,0,0,176.525,272.826Z" transform="translate(-159.183 -242.789)" fill="#3847dc" style="mix-blend-mode: multiply;isolation: isolate"/>
            </g>
          </g>
        </g>
      </g>
    </g>
  </g>
</svg>
