<svg xmlns="http://www.w3.org/2000/svg" width="15.258" height="14.618" viewBox="0 0 15.258 14.618">
  <path id="star" d="M14.926,7.672a1.094,1.094,0,0,0-.607-1.866l-3.694-.537A.483.483,0,0,1,10.261,5L8.61,1.657a1.094,1.094,0,0,0-1.962,0L5,5a.483.483,0,0,1-.364.264L.937,5.805A1.094,1.094,0,0,0,.33,7.672L3,10.277a.484.484,0,0,1,.139.428l-.631,3.679a1.071,1.071,0,0,0,.239.887,1.106,1.106,0,0,0,1.349.266L7.4,13.8a.5.5,0,0,1,.45,0l3.3,1.737a1.083,1.083,0,0,0,.509.127,1.1,1.1,0,0,0,.84-.394,1.071,1.071,0,0,0,.239-.887l-.631-3.679a.483.483,0,0,1,.139-.428Z" transform="translate(0.001 -1.047)" fill="#ff7c65"/>
</svg>
