<svg xmlns="http://www.w3.org/2000/svg" width="14.18" height="17.024" viewBox="0 0 14.18 17.024">
  <g id="_09-timer" data-name="09-timer" transform="translate(-8)">
    <path id="Path_598" data-name="Path 598" d="M20.245,5.065l1.019-1.019-1-1-1.09,1.09A7.045,7.045,0,0,0,15.8,2.872V1.418h1.418V0H12.963V1.418h1.418V2.872a7.045,7.045,0,0,0-3.372,1.262l-1.09-1.09-1,1L9.936,5.065a7.09,7.09,0,1,0,10.309,0ZM15.09,15.6a5.672,5.672,0,1,1,5.672-5.672A5.672,5.672,0,0,1,15.09,15.6Z" fill="#ff7c65"/>
    <path id="Path_599" data-name="Path 599" d="M28.254,32v4.254H24A4.254,4.254,0,1,0,28.254,32Z" transform="translate(-13.164 -26.328)" fill="#ff7c65"/>
  </g>
</svg>
